<svg width="78" height="18" viewBox="0 0 78 18" fill="none" xmlns="http://www.w3.org/2000/svg">
<rect x="1.96442" y="15.549" width="34.3622" height="0.876752" fill="#67847F"/>
<rect x="43.6378" y="15.549" width="34.3622" height="0.876752" fill="#67847F"/>
<rect width="2.96983" height="2.96983" transform="matrix(0.743515 -0.668719 0.743515 0.668719 37.7741 16.014)" fill="#67847F"/>
<path d="M3.65625 0V13.5898H10.7227V11.1787H5.84863V7.45215H11.4541V8.11035H6.58008V10.5215H11.4541V13.5898H18.2773V11.1787H13.4033V7.45215H19.0088V8.11035H14.1348V10.5215H19.0088V13.5898H20.959V7.45215H21.6895V13.5898H25.833V7.45215H26.5635V13.5898H28.5137V7.45215H34.6055V10.959H29.2441V13.5898H35.8252V14.2471H2.9248V0.657227H0V0H3.65625ZM29.2441 10.3018H33.875V8.11035H29.2441V10.3018Z" fill="#67847F"/>
<rect width="6.79483" height="0.731111" transform="matrix(1.03449e-08 1 1 -1.84699e-07 57.0267 7.45239)" fill="#67847F"/>
<rect x="51.6652" y="7.45239" width="5.60519" height="0.657563" fill="#67847F"/>
<rect width="5.60519" height="0.657563" transform="matrix(1 -7.86283e-08 -9.72009e-08 -1 51.6652 10.7402)" fill="#67847F"/>
<rect width="3.50701" height="0.731111" transform="matrix(-1.32587e-08 1 1 1.07253e-08 51.6652 10.0826)" fill="#67847F"/>
<rect width="32.9" height="0.657561" transform="matrix(-1 3.58726e-07 2.13053e-08 1 77.0104 13.5897)" fill="#67847F"/>
<rect width="9.26074" height="0.657561" transform="matrix(-1 1.27442e-06 5.99704e-09 1 53.3711 0)" fill="#67847F"/>
<rect width="13.3705" height="0.731108" transform="matrix(-8.34097e-07 -1 -1 -3.06558e-08 47.7659 13.5897)" fill="#67847F"/>
<rect width="13.3705" height="0.731108" transform="matrix(-8.34097e-07 -1 -1 -3.06558e-08 62.3882 13.5897)" fill="#67847F"/>
<rect x="67.0185" y="7.45239" width="6.79483" height="0.731111" transform="rotate(90 67.0185 7.45239)" fill="#67847F"/>
<rect x="72.38" y="10.7402" width="5.60519" height="0.657563" transform="rotate(-180 72.38 10.7402)" fill="#67847F"/>
<rect x="72.38" y="10.0826" width="3.50701" height="0.731111" transform="rotate(90 72.38 10.0826)" fill="#67847F"/>
<rect width="5.60519" height="0.657563" transform="matrix(-1 7.86283e-08 9.72009e-08 1 72.38 8.98669)" fill="#67847F"/>
<rect width="3.50701" height="0.731111" transform="matrix(1.32587e-08 -1 -1 -1.07253e-08 72.38 9.64426)" fill="#67847F"/>
<rect width="13.3705" height="0.731108" transform="matrix(-8.34097e-07 -1 -1 -3.06558e-08 67.0185 13.5897)" fill="#67847F"/>
</svg>
